<svg width="17" height="18" viewBox="0 0 17 18" fill="none" xmlns="http://www.w3.org/2000/svg">
<path d="M4.38867 4.13965V5.11181H2.93042C2.12505 5.11181 1.47217 5.7647 1.47217 6.57007V15.3196C1.47217 16.1249 2.12505 16.7778 2.93042 16.7778H9.7356C10.541 16.7778 11.1938 16.1249 11.1938 15.3196V13.8613H12.166V15.3196C12.166 16.6619 11.0779 17.75 9.7356 17.75H2.93042C1.58814 17.75 0.5 16.6619 0.5 15.3196V6.57007C0.5 5.22778 1.58814 4.13965 2.93042 4.13965H4.38867ZM12.166 1.22314H6.81909C6.01372 1.22314 5.36084 1.87602 5.36084 2.68139V11.4309C5.36084 12.2363 6.01372 12.8892 6.81909 12.8892H13.6243C14.4296 12.8892 15.0825 12.2363 15.0825 11.4309V4.13965H12.6521C12.3836 4.13965 12.166 3.92202 12.166 3.65356V1.22314ZM16.0547 3.68076V11.4309C16.0547 12.7732 14.9666 13.8613 13.6243 13.8613H6.81909C5.47681 13.8613 4.38867 12.7732 4.38867 11.4309V2.68139C4.38867 1.33911 5.47681 0.250974 6.81909 0.250974H12.6249C12.754 0.242789 12.8883 0.285817 12.9958 0.393345L15.9123 3.30985C16.0198 3.41738 16.0629 3.55171 16.0547 3.68076ZM13.1382 3.16748H14.3951L13.1382 1.91057V3.16748ZM7.79126 9.97265C7.5228 9.97265 7.30518 9.75503 7.30518 9.48657C7.30518 9.21811 7.5228 9.00049 7.79126 9.00049H9.7356C10.0041 9.00049 10.2217 9.21811 10.2217 9.48657C10.2217 9.75503 10.0041 9.97265 9.7356 9.97265H7.79126ZM7.79126 8.02832C7.5228 8.02832 7.30518 7.81069 7.30518 7.54223C7.30518 7.27378 7.5228 7.05615 7.79126 7.05615H12.6521C12.9206 7.05615 13.1382 7.27378 13.1382 7.54223C13.1382 7.81069 12.9206 8.02832 12.6521 8.02832H7.79126ZM7.79126 6.08398C7.5228 6.08398 7.30518 5.86636 7.30518 5.5979C7.30518 5.32944 7.5228 5.11181 7.79126 5.11181H12.6521C12.9206 5.11181 13.1382 5.32944 13.1382 5.5979C13.1382 5.86636 12.9206 6.08398 12.6521 6.08398H7.79126Z" fill="#A3A3A3"/>
</svg>
